<?xml version="1.0" encoding="UTF-8"?> <svg xmlns="http://www.w3.org/2000/svg" id="Layer_1" data-name="Layer 1" viewBox="0 0 550.01 85.56"><defs><style>.cls-1{fill:#5e5eff;}</style></defs><title>logo</title><path d="M849.62,525.92a14.35,14.35,0,0,1,6.09,5.73,16.41,16.41,0,0,1,2,8q0,7.8-5.15,11.9t-14.13,4.1H825.24v22.47h-8.67V523.77h23A21.4,21.4,0,0,1,849.62,525.92Zm-3.71,19.66a8.73,8.73,0,0,0,2.19-5.89,8.11,8.11,0,0,0-2.34-6.05q-2.34-2.29-7.41-2.3H825.24v16.78H838Q843.73,548.12,845.91,545.58Z" transform="translate(-685.29 -497.12)"></path><path d="M890.73,540.28a18.48,18.48,0,0,1,6.83,7.76,24.11,24.11,0,0,1,0,20.21,18.56,18.56,0,0,1-6.83,7.77,22.84,22.84,0,0,1-22.63,0,18.63,18.63,0,0,1-6.83-7.77,24.11,24.11,0,0,1,0-20.21,18.55,18.55,0,0,1,6.83-7.76,22.77,22.77,0,0,1,22.63,0Zm-3.12,27.31a18.17,18.17,0,0,0,0-19.16q-2.73-4-8.19-4t-8.2,4a18.17,18.17,0,0,0,0,19.16q2.73,4,8.2,4T887.61,567.59Z" transform="translate(-685.29 -497.12)"></path><path d="M914.59,578.16H906V523.69h8.58Z" transform="translate(-685.29 -497.12)"></path><path d="M951.64,540.47q4.88,3.21,4.88,11.24v26.45h-8.58v-5.85a13.16,13.16,0,0,1-5,5,15.43,15.43,0,0,1-7.61,1.76c-3.48,0-6.23-.68-8.23-2a10.78,10.78,0,0,1-4.13-4.76,13.23,13.23,0,0,1-1.14-5.07,14.28,14.28,0,0,1,2.81-8.51q2.82-3.9,10.85-4.76l12.49-1.32q0-8.12-8.2-8.12a9.48,9.48,0,0,0-5.69,1.68c-1.57,1.12-2.5,3-2.81,5.66l-8-1.72a14.82,14.82,0,0,1,7.65-10.69,18.37,18.37,0,0,1,9.28-2.11A20.53,20.53,0,0,1,951.64,540.47Zm-6.44,27.94a16.06,16.06,0,0,0,2.74-9.44l-9.45.93c-3,.31-5.1,1-6.24,2.19a5.74,5.74,0,0,0-1.72,4.21,6.06,6.06,0,0,0,1.6,4.29,6.46,6.46,0,0,0,5,1.72Q942.47,572.31,945.2,568.41Z" transform="translate(-685.29 -497.12)"></path><path d="M985.64,537.35a24.7,24.7,0,0,1,3.2.23v8.12A18.3,18.3,0,0,0,984,545a9.54,9.54,0,0,0-8,3.55q-2.82,3.56-2.81,10.57v19h-8.59v-40h8.59v6.17Q976.75,537.36,985.64,537.35Z" transform="translate(-685.29 -497.12)"></path><path d="M1055.22,523.77v54.39h-9.91l-26.38-40.65v40.65h-8.66V523.77h9l27.31,42.37V523.77Z" transform="translate(-685.29 -497.12)"></path><path d="M1093.12,540.28A18.48,18.48,0,0,1,1100,548a24,24,0,0,1,0,20.21,18.56,18.56,0,0,1-6.83,7.77,22.84,22.84,0,0,1-22.63,0,18.54,18.54,0,0,1-6.82-7.77,24,24,0,0,1,0-20.21,18.46,18.46,0,0,1,6.82-7.76,22.77,22.77,0,0,1,22.63,0ZM1090,567.59a18.17,18.17,0,0,0,0-19.16q-2.73-4-8.19-4t-8.19,4a18.12,18.12,0,0,0,0,19.16q2.73,4,8.19,4T1090,567.59Z" transform="translate(-685.29 -497.12)"></path><path d="M1112,526.5h7.88v11.63h9.36v7.49h-9.36v16.15a18.42,18.42,0,0,0,.7,5.82,4.49,4.49,0,0,0,2.26,2.73,10.49,10.49,0,0,0,4.37.74h2v7.49h-2.34a28.75,28.75,0,0,1-7.8-.93,10.1,10.1,0,0,1-5.5-4.06c-1.48-2.08-2.23-5.18-2.23-9.29V545.62h-7.18v-7.49a14,14,0,0,0,5.12-.7,3.64,3.64,0,0,0,2.18-2.23,14.55,14.55,0,0,0,.51-4.4Z" transform="translate(-685.29 -497.12)"></path><path d="M1145.73,529.62a5.51,5.51,0,0,1-4.1,1.72,5.86,5.86,0,0,1-5.85-5.85,5.53,5.53,0,0,1,1.71-4.1,5.72,5.72,0,0,1,4.14-1.68,5.72,5.72,0,0,1,5.77,5.78A5.67,5.67,0,0,1,1145.73,529.62Zm.11,48.46h-8.5v-40h8.5Z" transform="translate(-685.29 -497.12)"></path><path d="M1183.75,540.28a18.55,18.55,0,0,1,6.83,7.76,24.11,24.11,0,0,1,0,20.21,18.63,18.63,0,0,1-6.83,7.77,22.84,22.84,0,0,1-22.63,0,18.56,18.56,0,0,1-6.83-7.77,24.11,24.11,0,0,1,0-20.21,18.48,18.48,0,0,1,6.83-7.76,22.77,22.77,0,0,1,22.63,0Zm-3.12,27.31a18.17,18.17,0,0,0,0-19.16q-2.73-4-8.2-4t-8.19,4a18.17,18.17,0,0,0,0,19.16q2.73,4,8.19,4T1180.63,567.59Z" transform="translate(-685.29 -497.12)"></path><path d="M1231.52,542.38q3.78,5.19,3.78,13.07v22.71h-8.58V557.09q0-5.93-2.15-9.05t-6.91-3.12a8.36,8.36,0,0,0-7.49,4q-2.57,4-2.57,11.27v17.95H1199v-40h8.59v5.23a13,13,0,0,1,11.55-6.17Q1227.73,537.19,1231.52,542.38Z" transform="translate(-685.29 -497.12)"></path><path class="cls-1" d="M730.08,582.68c-25.12,0-44.79-13.9-44.79-31.65s19.67-31.64,44.79-31.64,44.79,13.9,44.79,31.64S755.19,582.68,730.08,582.68Zm0-57.58C708.53,525.1,691,536.73,691,551S708.53,577,730.08,577s39.08-11.63,39.08-25.94S751.63,525.1,730.08,525.1Z" transform="translate(-685.29 -497.12)"></path><rect class="cls-1" x="41.93" y="25.12" width="5.71" height="57.58"></rect><path class="cls-1" d="M730.08,582.56a5.13,5.13,0,0,1-1.65-.26c-14.52-4.69-23.55-16.67-23.55-31.27s8.8-26.33,23.52-31.25a5.33,5.33,0,0,1,3.35,0h0c14.73,4.92,23.52,16.6,23.52,31.25s-9,26.58-23.55,31.27A5.07,5.07,0,0,1,730.08,582.56Zm0-57.32C717.87,529.36,710.59,539,710.59,551c0,12.18,7.28,21.82,19.49,25.8,12.2-4,19.48-13.62,19.48-25.8C749.56,539,742.28,529.36,730.08,525.24Z" transform="translate(-685.29 -497.12)"></path><rect class="cls-1" x="2.85" y="51.06" width="83.87" height="5.71"></rect><rect class="cls-1" x="93.04" width="5.71" height="31.56"></rect><rect class="cls-1" x="765.4" y="510.05" width="31.56" height="5.71" transform="translate(-837.08 -37.81) rotate(-30)"></rect><rect class="cls-1" x="778.33" y="497.12" width="5.71" height="31.56" transform="translate(-738.88 435.86) rotate(-60)"></rect></svg> 